<svg xmlns="http://www.w3.org/2000/svg" fill="none" viewBox="0 0 80 40"><rect width="80" height="40" fill="#0445A3" rx="20"/><path fill="#fff" stroke="#0445A3" stroke-width="1.5" d="M79.25 20c0 10.631-8.618 19.25-19.25 19.25S40.75 30.631 40.75 20 49.368.75 60 .75 79.25 9.369 79.25 20z"/><path fill="#fff" fill-rule="evenodd" d="M27.071 12.929a10.001 10.001 0 1 0-14.143 14.144A10.001 10.001 0 0 0 27.07 12.93zM20 28.5a8.5 8.5 0 0 1-1.92-.226c.13-.134.258-.35.46-.694.067-.113.124-.231.17-.355l.048-.1c.043-.089.091-.188.142-.3.079-.173.17-.341.275-.5a1.417 1.417 0 0 1 .09-.535c.055-.129.122-.253.2-.37.08-.108.172-.204.275-.29.275-.173.53-.376.76-.605.157-.135.279-.307.355-.5a2.6 2.6 0 0 0 .12-.58c.026-.281.035-.563.025-.845a.498.498 0 0 0-.155-.365 2.364 2.364 0 0 0-.41-.315c-.17-.105-.36-.23-.57-.37a3.637 3.637 0 0 1-.61-.525 1.593 1.593 0 0 0-.62-.46 2.143 2.143 0 0 0-.65-.15 3.682 3.682 0 0 0-.63 0c-.11 0-.21.009-.305.017-.082.007-.158.013-.23.013h-.125a.58.58 0 0 0-.17-.15l-.125-.06v-.045l.05-.105a.14.14 0 0 0 .025-.165.15.15 0 0 0-.15-.085.378.378 0 0 0-.095 0h-.115a.912.912 0 0 0-.06-.19 1.902 1.902 0 0 1-.11-.345c.159.128.326.245.5.35.114.065.234.118.36.155a.402.402 0 0 0 .25.045c.155-.03.24-.185.265-.465a5.022 5.022 0 0 0-.035-.965.42.42 0 0 0 .085-.17.924.924 0 0 1 .19-.46.265.265 0 0 1 .145-.105c.045 0 .065-.03.065-.04l.145-.085.21-.045a.846.846 0 0 0 .38-.08c.1-.06.12-.13.065-.21-.055-.08 0-.025 0-.025a.852.852 0 0 0 .15-.085.909.909 0 0 0 .105-.08l.165-.215a3.05 3.05 0 0 0 .295-.42 1.363 1.363 0 0 0-.24-.29 5.27 5.27 0 0 0-.24-.21 2.241 2.241 0 0 0-.255-.15.33.33 0 0 0-.4-.105l-.185-.06a.223.223 0 0 1-.065-.045.055.055 0 0 0-.04 0 2.463 2.463 0 0 0-.235-.17.775.775 0 0 1-.25-.06 3.53 3.53 0 0 1-.545-.43 1.786 1.786 0 0 1-.38-.5.535.535 0 0 0-.5-.325A3.199 3.199 0 0 0 15.2 14c-.233 0-.498-.054-.767-.11a16.212 16.212 0 0 0-.252-.049 8.506 8.506 0 0 1 2.918-1.822c.377.515 1.368 1.119 1.726 1.246.48.172.989.26 1.5.26.059-.004.117-.013.175-.025l.2-.03c.112-.014.222-.046.325-.095.107-.05.209-.11.305-.18l.2-.115.2-.095c.18-.07.377-.096.57-.075.195.025.39.055.585.095.1.03.202.056.305.075.107.02.216.03.325.03.096.057.462-.168.713-.477a8.556 8.556 0 0 1 1.865 1.447l-.24.022c-.68.061-1.435.13-1.578.148a5.522 5.522 0 0 0-.775.16c-.24.066-.473.156-.695.27a1.177 1.177 0 0 0-.46.42 3.465 3.465 0 0 0-.345.64c-.056.148-.098.3-.125.455-.021.106-.032.198-.04.275l-.005.04a.596.596 0 0 1-.075.25.43.43 0 0 1-.155.19.572.572 0 0 0-.16.15.328.328 0 0 0-.05.22c.02.136.066.266.135.385.05.115.085.236.105.36h.275l.25-.055a.503.503 0 0 0 .255-.135l1.385.125a.859.859 0 0 1 .4-.295c.074-.029.15-.049.23-.06a.543.543 0 0 1 .23.105c.096.078.188.162.275.25.14.15.259.318.355.5l-.585.4a2.266 2.266 0 0 1-.5-.255 3.367 3.367 0 0 1-.295-.19 1.071 1.071 0 0 0-.45-.09 4.581 4.581 0 0 0-.62 0 2.97 2.97 0 0 0-.524.062 7.799 7.799 0 0 1-.676.093l-.085.17a.713.713 0 0 1-.09.115.312.312 0 0 1-.16.075.739.739 0 0 0 0 .21.308.308 0 0 1 0 .105A1.769 1.769 0 0 0 21 20.5c.155.73.53 1.095 1.135 1.095h.23a3.48 3.48 0 0 1 .62.04c.12.03.18.05.18.065a.727.727 0 0 0-.075.4c.026.109.064.214.115.315l.065.125c.066.141.099.295.095.45a3.646 3.646 0 0 1-.055.455.87.87 0 0 1 0 .125.92.92 0 0 0 0 .105c-.03.187-.007.38.065.555.07.175.14.35.21.5l.08.19.085.17a.136.136 0 0 0 0 .08c.033.125.08.246.14.36a.409.409 0 0 0 .28.23c.255.04.57-.125.945-.5.272-.27.448-.62.5-1a.898.898 0 0 1 .075-.23c.035-.07.065-.14.095-.21.026-.083.057-.163.095-.24.038-.086.07-.175.095-.265v-.27c.07-.14.125-.28.175-.41.047-.117.072-.243.075-.37a1.336 1.336 0 0 1 0-.155.655.655 0 0 0 0-.14l.15-.145.145-.145.006-.008c.039-.043.081-.09.119-.142l.17-.25a.554.554 0 0 0 .085-.44.214.214 0 0 0-.105-.085l-.295-.105c0-.1.075-.15.23-.15h.25s-.035.08.76-.46a2.81 2.81 0 0 0 .726-.71c.017.222.034.444.034.67a8.5 8.5 0 0 1-8.5 8.5zm-8.195-10.672A8.456 8.456 0 0 0 11.5 20c0 3.626 2.275 6.714 5.472 7.935a4.66 4.66 0 0 0 .113-.805c.015-.225.035-.49.065-.78.03-.29.06-.605.085-.87a57.9 57.9 0 0 1 .035-.355c.015-.146.029-.285.04-.41.01-.107.021-.198.031-.274.01-.083.019-.146.019-.191a.877.877 0 0 0-.19-.545l-.125-.19c-.11-.18-.225-.385-.345-.61a1.848 1.848 0 0 1-.2-.795 3.108 3.108 0 0 1 0-.61c.014-.095.02-.189.02-.285a.36.36 0 0 0-.07-.065l-.075-.04a2.291 2.291 0 0 0-.23-.21 1.8 1.8 0 0 0-.235-.21 3.575 3.575 0 0 0-.795-.285 3.762 3.762 0 0 1-.78-.26l-.4-.19a5.523 5.523 0 0 1-1.045-.755 2.657 2.657 0 0 1-.46-.57c-.084-.123-.19-.251-.3-.388a8.377 8.377 0 0 1-.325-.414z" clip-rule="evenodd"/><rect width="13" height="1.5" x="55" y="13.25" fill="#0445A3" rx=".75"/><rect width="13" height="1.5" x="55" y="17.25" fill="#0445A3" rx=".75"/><rect width="13" height="1.5" x="55" y="21.25" fill="#0445A3" rx=".75"/><rect width="13" height="1.5" x="55" y="25.25" fill="#0445A3" rx=".75"/><rect width="1.5" height="1.5" x="52" y="13.25" fill="#0445A3" rx=".75"/><rect width="1.5" height="1.5" x="52" y="17.25" fill="#0445A3" rx=".75"/><rect width="1.5" height="1.5" x="52" y="21.25" fill="#0445A3" rx=".75"/><rect width="1.5" height="1.5" x="52" y="25.25" fill="#0445A3" rx=".75"/></svg>