<svg xmlns="http://www.w3.org/2000/svg" fill="none" viewBox="0 0 24 24"><path fill="#0C48A1" fill-rule="evenodd" d="M5.25 5.25A1.75 1.75 0 0 0 3.5 7v12.246c0 .967.784 1.75 1.75 1.75h13.5a1.75 1.75 0 0 0 1.75-1.75V7a1.75 1.75 0 0 0-1.75-1.75h-.264a2.25 2.25 0 0 0-4.473 0H9.988a2.25 2.25 0 0 0-4.474 0H5.25zm-.25 5h14v8.996a.25.25 0 0 1-.25.25H5.25a.25.25 0 0 1-.25-.25V10.25zm12-3.246a.75.75 0 0 1-1.5 0V5.498a.75.75 0 1 1 1.5 0v1.506zm-8.5 0a.75.75 0 0 1-1.5 0V5.498a.749.749 0 1 1 1.5 0v1.506z" clip-rule="evenodd"/></svg>