<svg xmlns="http://www.w3.org/2000/svg" fill="none" viewBox="0 0 24 24"><path fill="#637A86" fill-rule="evenodd" d="M5.25 2.5a.75.75 0 0 0-.75.75v17.5c0 .414.336.75.75.75h13.5a.75.75 0 0 0 .75-.75V3.25a.75.75 0 0 0-.75-.75H5.25zM6 20V4h12v16H6zM8.254 5.496a.75.75 0 0 0-.75.75v2.498c0 .414.336.75.75.75h2.997a.75.75 0 0 0 .75-.75V6.246a.75.75 0 0 0-.75-.75H8.254zm.75 2.498v-.998h1.497v.998H9.004zM7.5 11.778a.75.75 0 0 1 .75-.75h7.5a.75.75 0 0 1 0 1.5h-7.5a.75.75 0 0 1-.75-.75zm0 2.972a.75.75 0 0 1 .75-.75h7.5a.75.75 0 0 1 0 1.5h-7.5a.75.75 0 0 1-.75-.75zm6.248-9.25a.75.75 0 0 0 0 1.5h2.002a.75.75 0 0 0 0-1.5h-2.002zm-.75 3.276a.75.75 0 0 1 .75-.75h2.002a.75.75 0 0 1 0 1.5h-2.002a.75.75 0 0 1-.75-.75zM8.25 17a.75.75 0 0 0 0 1.5H12a.75.75 0 0 0 0-1.5H8.25z" clip-rule="evenodd"/></svg>