<svg xmlns="http://www.w3.org/2000/svg" fill="none" viewBox="0 0 112 16"><path fill="#0C48A1" fill-rule="evenodd" d="M28.404 3.267c-2.857.002-4.638 2.733-6.44 5.499-2.332 3.576-4.693 7.195-9.568 7.225H8.034c-2.21 0-4.22-.899-5.675-2.346A7.953 7.953 0 0 1 0 7.995c0-2.2.903-4.2 2.359-5.647A8.032 8.032 0 0 1 8.034 0h4.362c.906 0 1.642.731 1.642 1.634 0 .902-.736 1.633-1.642 1.633H8.034a4.748 4.748 0 0 0-3.354 1.39 4.703 4.703 0 0 0-1.398 3.339c0 1.299.536 2.48 1.398 3.338a4.747 4.747 0 0 0 3.354 1.39h4.302c3.145 0 5.026-2.883 6.883-5.732C21.512 3.474 23.778 0 28.406 0c4.63 0 6.895 3.474 9.188 6.992 1.858 2.849 3.738 5.732 6.884 5.732.906 0 1.64.733 1.64 1.634 0 .903-.734 1.634-1.64 1.634-4.917 0-7.287-3.636-9.628-7.226-1.803-2.767-3.585-5.499-6.444-5.499h-.002zm3.58 9.465h-7.155a1.64 1.64 0 0 1-1.638-1.63c0-.894.737-1.63 1.638-1.63h7.154c.901 0 1.638.734 1.638 1.63 0 .896-.74 1.63-1.638 1.63zM91.591 1.63v12.733c0 .896-.737 1.629-1.636 1.629h-.001c-.9 0-1.637-.733-1.637-1.629V1.63c0-.897.737-1.63 1.637-1.63s1.637.734 1.637 1.63zm-15.37 4.732h3.111c1.333 0 2.543.542 3.418 1.413a4.788 4.788 0 0 1 0 6.804 4.832 4.832 0 0 1-3.418 1.413h-6.728c-2.212 0-4.221-.9-5.677-2.348a7.953 7.953 0 0 1-2.359-5.648c0-2.2.904-4.2 2.359-5.648A8.032 8.032 0 0 1 72.605 0h9.402c.907 0 1.642.731 1.642 1.634 0 .902-.735 1.633-1.642 1.633h-9.403a4.748 4.748 0 0 0-3.354 1.39 4.702 4.702 0 0 0-1.397 3.339c0 1.299.535 2.48 1.397 3.338a4.748 4.748 0 0 0 3.355 1.39h6.728c.426 0 .815-.174 1.098-.456.282-.28.458-.667.458-1.09 0-.425-.176-.811-.458-1.092a1.555 1.555 0 0 0-1.098-.456h-3.112a1.637 1.637 0 0 1-1.642-1.634c0-.903.735-1.634 1.642-1.634zM97.511 16h9.652c1.332 0 2.542-.541 3.418-1.413a4.782 4.782 0 0 0 0-6.804 4.838 4.838 0 0 0-3.418-1.413h-6.483c-.425 0-.813-.174-1.096-.455a1.54 1.54 0 0 1-.458-1.092c0-.424.175-.81.458-1.092a1.553 1.553 0 0 1 1.096-.456h8.82c.908 0 1.643-.73 1.643-1.633 0-.902-.735-1.634-1.643-1.634h-8.82a4.84 4.84 0 0 0-3.418 1.413 4.793 4.793 0 0 0-1.42 3.402 4.79 4.79 0 0 0 1.42 3.401 4.844 4.844 0 0 0 2.812 1.376v.037h7.089c.426 0 .813.175 1.096.456.283.282.458.669.458 1.092 0 .424-.175.81-.458 1.092-.283.282-.67.456-1.096.456h-9.653c-.906 0-1.641.731-1.641 1.634 0 .902.735 1.633 1.641 1.633zM43.717.008H56.68a4.84 4.84 0 0 1 3.419 1.413 4.793 4.793 0 0 1 1.42 3.402 4.79 4.79 0 0 1-1.42 3.401 4.836 4.836 0 0 1-3.42 1.413h-2.742l.26.212c1.759 1.422 3.538 2.863 6.774 2.863.907 0 1.642.732 1.642 1.634 0 .902-.735 1.634-1.642 1.634-4.387 0-6.627-1.814-8.84-3.604-1.706-1.382-3.392-2.747-6.357-2.747a1.638 1.638 0 0 1-1.642-1.634c0-.902.736-1.633 1.642-1.633.182 0 .36.004.534.01V6.37H56.68c.425 0 .814-.174 1.097-.455a1.54 1.54 0 0 0 .458-1.092c0-.424-.175-.81-.458-1.092a1.554 1.554 0 0 0-1.097-.456H43.718a1.637 1.637 0 0 1-1.641-1.633c0-.902.734-1.634 1.641-1.634z" clip-rule="evenodd"/></svg>