<svg xmlns="http://www.w3.org/2000/svg" fill="none" viewBox="0 0 24 24"><path stroke="#637A86" stroke-linecap="round" stroke-linejoin="round" stroke-width="1.5" d="M6 17.5s.196-1.722.5-2.5 1.46-2.5 3.652-2.5 3.145 1.556 3.348 2.333V15M7.52 10.313C7.404 9.374 7.734 7 10 7s2.597 2.375 2.48 3.313c-.119.729-.78 2.187-2.48 2.187s-2.361-1.458-2.48-2.188z"/><mask id="a" width="11" height="13" x="9.879" y="8.75" fill="#000" maskUnits="userSpaceOnUse"><path fill="#fff" d="M9.879 8.75h11v13h-11z"/><path fill-rule="evenodd" d="M15.5 9.75c-1.467 0-2.352.802-2.806 1.723a4.575 4.575 0 0 0-.414 2.46c.078.478.322 1.16.819 1.736.065.076.135.15.21.222-1.132.683-1.777 1.746-2.007 2.336-.108.274-.187.658-.248 1.024-.065.383-.12.812-.164 1.207-.02.185-.01.108.005 0 .018-.124.04-.29.028-.144l-.027.325-.007.09-.001.024-.001.01.748.053.748.054v-.007l.002-.022.007-.085c.006-.074.014-.181.026-.313.012-.142-.012.034-.03.166-.015.112-.026.19-.007.016.024-.214.05-.433.08-.645.022-.166.047-.329.072-.481.061-.363.12-.61.165-.726.25-.639 1.205-2.023 2.954-2.023 1.674 0 2.183.468 2.372 1.046l-.014-.172a.75.75 0 0 0 1.49-.124l.024.19a.75.75 0 0 0-.024-.19c-.168-.642-.617-1.38-1.6-1.83h.001a3.666 3.666 0 0 0 .822-1.764 4.574 4.574 0 0 0-.417-2.434c-.454-.92-1.339-1.722-2.806-1.722zM18 17.5l.01.123A.761.761 0 0 1 18 17.5zm-3.765-2.81a2.177 2.177 0 0 1-.472-.984 3.094 3.094 0 0 1 .275-1.57c.248-.5.662-.886 1.462-.886.8 0 1.214.385 1.462.887.27.548.316 1.213.275 1.569a2.177 2.177 0 0 1-.472.984c-.269.312-.66.56-1.265.56-.605 0-.996-.248-1.265-.56z" clip-rule="evenodd"/></mask><path fill="#637A86" fill-rule="evenodd" d="M15.5 9.75c-1.467 0-2.352.802-2.806 1.723a4.575 4.575 0 0 0-.414 2.46c.078.478.322 1.16.819 1.736.065.076.135.15.21.222-1.132.683-1.777 1.746-2.007 2.336-.108.274-.187.658-.248 1.024-.065.383-.12.812-.164 1.207-.02.185-.01.108.005 0 .018-.124.04-.29.028-.144l-.027.325-.007.09-.001.024-.001.01.748.053.748.054v-.007l.002-.022.007-.085c.006-.074.014-.181.026-.313.012-.142-.012.034-.03.166-.015.112-.026.19-.007.016.024-.214.05-.433.08-.645.022-.166.047-.329.072-.481.061-.363.12-.61.165-.726.25-.639 1.205-2.023 2.954-2.023 1.674 0 2.183.468 2.372 1.046l-.014-.172a.75.75 0 0 0 1.49-.124l.024.19a.75.75 0 0 0-.024-.19c-.168-.642-.617-1.38-1.6-1.83h.001a3.666 3.666 0 0 0 .822-1.764 4.574 4.574 0 0 0-.417-2.434c-.454-.92-1.339-1.722-2.806-1.722zM18 17.5l.01.123A.761.761 0 0 1 18 17.5zm-3.765-2.81a2.177 2.177 0 0 1-.472-.984 3.094 3.094 0 0 1 .275-1.57c.248-.5.662-.886 1.462-.886.8 0 1.214.385 1.462.887.27.548.316 1.213.275 1.569a2.177 2.177 0 0 1-.472.984c-.269.312-.66.56-1.265.56-.605 0-.996-.248-1.265-.56z" clip-rule="evenodd"/><path fill="#fff" d="M12.283 19.805a.25.25 0 1 0 .355.351l-.355-.351zm3.547-2.88a.25.25 0 1 0-.356-.35l.356.35zm-3.192 3.231l3.192-3.23-.356-.352-3.191 3.23.355.352zm.056-8.683l.448.221-.448-.222zm-.418 2.433l-.495.063.495-.063zm.004.026l.494-.08-.494.08zm.819 1.737l-.379.326.379-.326zm.21.222l.258.428a.5.5 0 0 0 .088-.789l-.346.36zm-2.007 2.336l.465.182-.465-.182zm-.248 1.024l-.493-.083.493.083zm-.164 1.207l.497.056-.497-.056zm.005 0l-.495-.069.495.07zm.028-.144l-.498-.043.498.043zm-.027.325l-.498-.039.498.04zm-.007.09l-.498-.038v.001l.498.037zm-.001.024l-.499-.037v.001l.499.036zm-.001.01l-.499-.037.499.036zm.748.053l.036-.499-.036.5zm.748.054l-.498-.037.498.037zm0-.007l-.498-.037.499.037zm.002-.022l-.498-.038v.001l.498.037zm.007-.085l-.499-.039.499.04zm.026-.313l.498.043-.498-.043zm-.03.166l-.496-.068.496.068zm-.007.016l-.497-.056.497.056zm.08-.645l.495.068-.495-.067zm.072-.481l-.493-.083.493.083zm.165-.726l-.465-.182.465.182zm5.326-.977l-.475.156a.5.5 0 0 0 .974-.197l-.499.041zm.726.454v.5-.5zm.75-.75l.484-.126-.484.126zm.024.19l-.496.063a.5.5 0 0 0 .996-.064h-.5zM17.9 15.67l-.379-.326a.5.5 0 0 0 .17.781l.209-.454zm.001 0l.379.325-.379-.326zm.819-1.738l.493.08-.493-.08zm.003-.026l-.496-.062.496.062zm-.417-2.434l.449-.221-.449.222zM18 17.5l.498-.04a.5.5 0 0 0-.998.04h.5zm-4.237-3.794l-.496.058a.493.493 0 0 0 .003.026l.493-.084zm.472.984l.38-.326-.38.326zm-.197-2.553l-.448-.222.448.222zm2.924 0l.448-.222-.448.222zm.275 1.569l.493.084a.618.618 0 0 0 .003-.026l-.496-.058zm-.472.984l.378.327-.378-.327zm-3.623-2.996c.386-.782 1.114-1.444 2.358-1.444v-1c-1.69 0-2.732.942-3.255 2.001l.897.443zm-.37 2.15a4.077 4.077 0 0 1 .37-2.15l-.897-.443a5.072 5.072 0 0 0-.464 2.718l.992-.125zm.002.008l-.001-.008-.992.125c.001.014.003.029.006.043l.987-.16zm.704 1.49a3.167 3.167 0 0 1-.704-1.49l-.987.16c.09.554.366 1.325.933 1.983l.758-.652zm.177.188a2.716 2.716 0 0 1-.177-.187l-.758.652c.075.088.156.174.242.256l.693-.72zm-1.888 2.879c.201-.513.784-1.477 1.8-2.09l-.517-.856c-1.248.753-1.954 1.916-2.214 2.582l.931.364zm-.22.925c.061-.365.134-.704.22-.925l-.931-.364c-.128.326-.214.757-.275 1.123l.986.166zm-.16 1.18c.044-.391.098-.81.16-1.18l-.986-.166a23.37 23.37 0 0 0-.167 1.235l.993.11zm-.987-.125c-.01.07-.013.09-.01.079l.008-.034a.503.503 0 0 1 .453-.364.5.5 0 0 1 .519.403c.008.04.009.073.009.08v.037c-.001.013-.002.02 0 .01 0-.013.003-.04.008-.086l-.993-.111a8.447 8.447 0 0 0-.011.1c0 .006-.003.024-.003.042v.041c0 .007 0 .04.008.08a.5.5 0 0 0 .95.103c.013-.032.02-.058.023-.064a.529.529 0 0 0 .009-.037c.006-.03.016-.103.02-.141l-.99-.138zm1.021-.032c.002-.02.004-.038.004-.054l.002-.032v-.03c0-.006-.002-.044-.012-.09-.003-.013-.018-.089-.072-.17a.5.5 0 0 0-.902.152l-.005.024a8.874 8.874 0 0 0-.036.232l.99.138.024-.161v.003a.407.407 0 0 1-.022.07.488.488 0 0 1-.1.16.5.5 0 0 1-.783-.066c-.053-.08-.068-.155-.07-.169a.482.482 0 0 1-.012-.11v-.01l-.002.027.996.086zm-.026.321l.026-.32-.996-.087-.027.33.997.077zm-.007.09l.007-.09-.997-.077-.007.09.997.077zm-.002.022l.002-.024-.997-.074-.002.024.997.074zm0 .009v-.01l-.997-.072v.009l.997.073zm.285-.482l-.654-.047-.082-.006h-.01.006l.008.001a.388.388 0 0 1 .05.008c.297.188.397.525-.102.49-.499-.037-.399.3-.101.489a.882.882 0 0 0 .057.008h.006l.003.001h.01l.082.007.655.047.072-.998zm.712.553c-.499-.036-.38-.324-.115-.487a.87.87 0 0 1 .073-.012l.04-.001H12.41a.12.12 0 0 0 .004 0h-.008l-.08-.006-.655-.047-.072.998.655.047.082.006h.012a.093.093 0 0 0 .009.001h.03l.038-.001a.864.864 0 0 0 .073-.012c.266-.162.384-.45-.115-.486zm-.498-.043v.006l.997.073V20.9l-.997-.073zm.002-.023l-.002.022.997.074.002-.022-.997-.074zm.006-.086l-.006.085.997.077.006-.086-.997-.076zm.026-.318l-.026.317.997.078c.006-.073.014-.179.026-.309l-.997-.086zm.964.277l.025-.176c.002-.01.002-.01 0-.006l-.001.01a.52.52 0 0 1-.055.138.496.496 0 0 1-.266.22.5.5 0 0 1-.598-.221c-.044-.076-.056-.146-.058-.157a.523.523 0 0 1-.008-.054l-.001-.039v-.012-.004.006c0 .005 0 .01-.002.018l.997.086a1.693 1.693 0 0 0 .005-.09.513.513 0 0 0-.01-.099.502.502 0 0 0-.923-.159c-.034.059-.048.112-.048.113-.007.024-.011.046-.012.05l-.008.045-.028.195.991.136zm-.999-.108a6.793 6.793 0 0 0-.01.095c0 .002-.003.025-.003.049v.024c0 .006 0 .036.006.073.003.013.011.065.04.126a.5.5 0 0 0 .947-.122l.02-.137-.992-.136-.012.093a.383.383 0 0 1 .008-.037c.002-.006.008-.03.02-.061a.493.493 0 0 1 .153-.202.5.5 0 0 1 .303-.107.5.5 0 0 1 .5.417c.006.037.006.067.007.072v.024l-.002.02.01-.08-.995-.11zm.081-.656c-.03.217-.056.44-.08.656l.993.112c.024-.211.05-.426.078-.633l-.99-.135zm.075-.497c-.026.159-.051.326-.075.497l.991.135c.022-.163.046-.32.07-.466l-.986-.166zm.193-.825c-.066.168-.132.462-.193.825l.986.166c.061-.364.114-.565.138-.627l-.931-.364zm3.42-2.341c-2.042 0-3.133 1.606-3.42 2.341l.931.364c.213-.543 1.032-1.705 2.488-1.705v-1zm2.847 1.39a1.722 1.722 0 0 0-.872-1.026c-.464-.244-1.103-.364-1.976-.364v1c.801 0 1.254.114 1.51.249.23.12.327.27.387.453l.95-.311zm-.988.024l.014.173.997-.081-.014-.173-.997.081zm1.238.086a.25.25 0 0 1-.247-.208l-.986.163a1.25 1.25 0 0 0 1.233 1.045v-1zm.25-.25a.25.25 0 0 1-.25.25v1c.69 0 1.25-.56 1.25-1.25h-1zm1.02.126l-.024-.19-.992.128.024.189.992-.127zm-1.004 0c.006.02.008.042.008.063h1c0-.106-.013-.212-.04-.315l-.968.252zm-1.324-1.5c.83.38 1.19.985 1.324 1.5l.968-.252c-.201-.77-.741-1.638-1.876-2.158l-.416.91zm-.17-.783v.001l.757.653v-.002l-.757-.652zm.704-1.49a3.166 3.166 0 0 1-.704 1.49l.758.652c.567-.658.843-1.429.933-1.983l-.987-.16zm.001-.01l-.001.01.987.16.006-.044-.992-.125zm-.369-2.149c.377.763.433 1.642.37 2.15l.991.125a5.074 5.074 0 0 0-.464-2.718l-.897.443zM15.5 10.25c1.244 0 1.972.662 2.358 1.444l.897-.443C18.232 10.192 17.19 9.25 15.5 9.25v1zm2.002 7.29l.01.124.997-.081-.01-.124-.997.082zm1.001.002a.255.255 0 0 1-.003-.042h-1c0 .07.006.138.017.205l.986-.163zM13.27 13.79c.056.326.235.818.587 1.227l.757-.653a1.681 1.681 0 0 1-.358-.744l-.986.17zm.32-1.875a3.588 3.588 0 0 0-.323 1.849l.993-.117a2.6 2.6 0 0 1 .227-1.289l-.897-.443zm1.91-1.165c-.484 0-.889.118-1.218.341-.326.222-.542.52-.692.824l.897.443c.098-.198.213-.342.356-.439.14-.094.341-.169.657-.169v-1zm1.91 1.165a2.087 2.087 0 0 0-.692-.823c-.33-.224-.734-.342-1.218-.342v1c.316 0 .518.075.657.17.143.096.259.24.356.438l.897-.443zm.323 1.849a3.59 3.59 0 0 0-.323-1.849l-.897.443a2.6 2.6 0 0 1 .227 1.29l.993.116zm-.59 1.253c.352-.41.53-.901.587-1.227l-.986-.17c-.03.18-.144.495-.358.744l.758.652zm-1.643.733c.768 0 1.292-.325 1.643-.733l-.757-.653c-.185.215-.444.386-.886.386v1zm-1.643-.733c.351.408.875.733 1.643.733v-1c-.442 0-.7-.171-.886-.386l-.758.652z" mask="url(#a)"/><path fill="#637A86" fill-rule="evenodd" d="M12 20a8 8 0 1 0 0-16 8 8 0 0 0 0 16zm0 1.5a9.5 9.5 0 1 0 0-19 9.5 9.5 0 0 0 0 19z" clip-rule="evenodd"/></svg>