<svg xmlns="http://www.w3.org/2000/svg" fill="none" viewBox="0 0 24 24"><path fill="#27C07D" fill-rule="evenodd" d="M13.648 3.885c-.729-1.275-2.567-1.275-3.296 0a1.898 1.898 0 0 1-2.306.84c-1.378-.51-2.786.673-2.525 2.118a1.898 1.898 0 0 1-1.226 2.125c-1.383.496-1.702 2.307-.573 3.246.714.593.894 1.615.426 2.416-.74 1.269.18 2.861 1.648 2.855a1.898 1.898 0 0 1 1.88 1.577c.248 1.447 1.976 2.076 3.097 1.127.708-.6 1.746-.6 2.454 0 1.12.95 2.849.32 3.097-1.127a1.898 1.898 0 0 1 1.88-1.577c1.468.006 2.388-1.586 1.648-2.855a1.898 1.898 0 0 1 .426-2.416c1.13-.94.81-2.75-.573-3.246a1.898 1.898 0 0 1-1.226-2.125c.261-1.445-1.148-2.627-2.525-2.119a1.898 1.898 0 0 1-2.306-.839zm2.72 6.234a.875.875 0 0 0-1.237-1.238l-4.381 4.381-1.881-1.88a.875.875 0 1 0-1.238 1.237l2.5 2.5a.875.875 0 0 0 1.238 0l5-5z" clip-rule="evenodd"/><path fill="#fff" fill-rule="evenodd" d="M16.369 8.881a.875.875 0 0 1 0 1.238l-5 5a.875.875 0 0 1-1.238 0l-2.5-2.5A.875.875 0 1 1 8.87 11.38l1.881 1.882 4.381-4.382a.875.875 0 0 1 1.238 0z" clip-rule="evenodd"/></svg>