<svg xmlns="http://www.w3.org/2000/svg" fill="none" viewBox="0 0 24 24"><path fill="#0C48A1" fill-rule="evenodd" d="M8.75 2.75a.75.75 0 0 0-.53.22l-4 4A.75.75 0 0 0 4 7.5v13c0 .414.336.75.75.75H8a.75.75 0 0 0 0-1.5H5.5V9.25h3.25c.494 0 .925-.24 1.218-.532.293-.293.532-.724.532-1.218V4.25H17V9a.75.75 0 0 0 1.5 0V3.5a.75.75 0 0 0-.75-.75h-9zm0 5H5.56L9 4.31V7.5c0 .006-.01.075-.093.157-.082.082-.15.093-.157.093zm9 7.75a4 4 0 1 1-8 0 4 4 0 0 1 8 0zm1.5 0a5.5 5.5 0 1 1-11 0 5.5 5.5 0 0 1 11 0zm-5.5-3.25a.75.75 0 0 1 .75.75v2.25h1.75a.75.75 0 0 1 0 1.5h-2.5A.75.75 0 0 1 13 16v-3a.75.75 0 0 1 .75-.75zm8-.5a.75.75 0 0 1 0 1.5h-2a.75.75 0 0 1 0-1.5h2zm1.5 3.5a.75.75 0 0 1 0 1.5h-3a.75.75 0 0 1 0-1.5h3zm-1.5 3.5a.75.75 0 0 1 0 1.5h-2.5a.75.75 0 0 1 0-1.5h2.5z" clip-rule="evenodd"/></svg>