<svg xmlns="http://www.w3.org/2000/svg" fill="none" viewBox="0 0 20 20"><path fill="#0C48A1" fill-rule="evenodd" d="M4.286 5.952H3.81a.714.714 0 1 1 0-1.428h12.38a.714.714 0 0 1 0 1.428h-.476v10a1.905 1.905 0 0 1-1.905 1.905H6.19a1.905 1.905 0 0 1-1.904-1.905v-10zm1.428 0v10c0 .263.213.477.476.477h7.62a.476.476 0 0 0 .476-.477v-10H5.714zm3.568 2.619l.004 5.714a.714.714 0 1 1-1.429.001l-.004-5.714a.714.714 0 0 1 1.429-.001zm2.86 5.714l-.003-5.714a.714.714 0 0 0-1.429.001l.004 5.714a.714.714 0 1 0 1.429 0z" clip-rule="evenodd"/><path fill="#0C48A1" fill-rule="evenodd" d="M11.428 1.905H8.572a2.38 2.38 0 0 0-2.38 2.38v1.667h7.619V4.286a2.381 2.381 0 0 0-2.382-2.381zM7.62 4.285c0-.525.426-.952.952-.952h2.857c.526 0 .953.427.953.953v.238H7.619v-.238z" clip-rule="evenodd"/></svg>