<svg xmlns="http://www.w3.org/2000/svg" fill="none" viewBox="0 0 24 24"><path fill="#637A86" fill-rule="evenodd" d="M18.139 17.13a8 8 0 1 0-12.278 0c.644-1.18 1.817-2.225 3.637-2.852A5 5 0 0 1 7.75 10.5c0-1.247.37-2.426 1.103-3.308.743-.895 1.83-1.442 3.147-1.442 2.586 0 4.25 2.244 4.25 4.75a5 5 0 0 1-1.748 3.778c1.82.627 2.993 1.672 3.637 2.852zm-1.134 1.111c-.481-1.208-1.767-2.489-4.569-2.926a2.836 2.836 0 0 0-.872 0c-2.802.437-4.088 1.718-4.57 2.926A7.967 7.967 0 0 0 12 20a7.966 7.966 0 0 0 5.005-1.759zM12 21.5a9.5 9.5 0 1 0 0-19 9.5 9.5 0 0 0 0 19zM10.007 8.15c-.471.567-.757 1.388-.757 2.35 0 1.866 1.482 3.25 2.75 3.25s2.75-1.384 2.75-3.25c0-1.912-1.208-3.25-2.75-3.25-.87 0-1.534.348-1.993.9z" clip-rule="evenodd"/></svg>