<svg xmlns="http://www.w3.org/2000/svg" fill="none" viewBox="0 0 16 16"><path fill="#BAC5CB" d="M8 9.667a1.667 1.667 0 1 0 0-3.334 1.667 1.667 0 0 0 0 3.334z"/><path fill="#BAC5CB" fill-rule="evenodd" d="M8 12.5c2.02 0 3.638-1.1 4.721-2.14.547-.524.971-1.047 1.26-1.439.16-.217.308-.44.45-.67a.5.5 0 0 0 0-.503 7.676 7.676 0 0 0-.45-.67 11.306 11.306 0 0 0-1.26-1.439C11.638 4.6 10.02 3.5 8 3.5S4.362 4.6 3.279 5.64a11.318 11.318 0 0 0-1.26 1.439c-.16.217-.308.44-.45.67a.504.504 0 0 0 0 .504c.135.231.291.452.45.668.289.392.713.915 1.26 1.44C4.362 11.4 5.98 12.5 8 12.5zM10.667 8a2.667 2.667 0 1 1-5.334 0 2.667 2.667 0 0 1 5.334 0zM8 9.667a1.667 1.667 0 1 0 0-3.334 1.667 1.667 0 0 0 0 3.334z" clip-rule="evenodd"/></svg>